# xmcd CD database file
#
# Track frame offsets:
#	150
#	29475
#	61650
#	92012
#	115912
#	136300
#	153500
#	169505
#	201095
#	221517
#	249845
#	277495
#	305257
#
# Disc length: 4371 seconds
#
# Revision: 0
# Processed by: cddbd v1.5.2PL0 Copyright (c) Steve Scherf et al.
# Submitted via: CDex 1.51
#
DISCID=b211110d
DTITLE=Michael Gregor's Revival Jazzband - Yes, Yes!
DYEAR=1994
DGENRE=Jazz
TTITLE0=You Tell Me Your Dream
TTITLE1=Breeze
TTITLE2=When My Dreamboat Comes Home
TTITLE3=I Want A Little Girl
TTITLE4=Baby Face
TTITLE5=Glory Of Love
TTITLE6=White Cliffs Of Dover
TTITLE7=Basin Street Blues
TTITLE8=Mack The Knife
TTITLE9=Just A Closer Walk
TTITLE10=Honeysuckle Rose
TTITLE11=Winter Wonderland
TTITLE12=Hindustan 
EXTD=YEAR: 1994
EXTT0=
EXTT1=
EXTT2=
EXTT3=
EXTT4=
EXTT5=
EXTT6=
EXTT7=
EXTT8=
EXTT9=
EXTT10=
EXTT11=
EXTT12=
PLAYORDER=
